<svg width="121" height="82" viewBox="0 0 121 82" fill="none" xmlns="http://www.w3.org/2000/svg">
<path d="M61.349 0.741691C58.4979 1.26441 53.6984 3.49782 51.56 5.25604C50.6571 6.01635 49.1365 7.67953 48.0911 9.01008L46.2378 11.3385L42.3412 11.4336C39.3475 11.5286 37.8269 11.8137 35.736 12.7641C30.3663 15.1401 26.2797 20.5573 25.6144 26.1171L25.2817 28.6831L23.1909 29.0158C10.5507 30.9166 0.714176 42.4163 0.666656 55.4366C0.666656 58.5729 2.09224 64.4653 3.56534 67.364C6.27396 72.6387 10.9309 77.1055 16.3956 79.5765C21.2426 81.7624 23.4285 82 37.9694 82H51.5125V73.2089V64.4178H46.0478C41.7235 64.4178 40.488 64.2752 40.2979 63.7525C39.9653 62.9447 59.8284 37.5693 60.7788 37.5693C61.7292 37.5693 81.5923 62.9447 81.2597 63.7525C81.0696 64.2752 79.7866 64.4178 75.5574 64.4178C70.9004 64.4178 70.0926 64.5128 69.9501 65.1781C69.855 65.6058 69.855 69.5974 69.9501 73.9692L70.0926 82H83.303C97.0362 82 99.4121 81.7624 103.879 80.0992C111.007 77.4381 117.232 70.7379 119.608 63.2298C120.843 59.2857 121.033 52.2528 119.988 48.4988C118.23 42.3212 114.476 37.0941 109.249 33.4351C106.54 31.5343 105.685 30.679 105.685 29.8236C105.685 28.0179 103.404 23.7411 101.551 22.0779C100.553 21.2226 98.6043 20.0346 97.2262 19.3693C94.8503 18.3239 94.2325 18.2289 90.431 18.4665C86.4868 18.7041 86.2017 18.6565 86.2017 17.8487C86.2017 16.0905 84.2059 11.6712 82.2101 8.91504C77.6007 2.68999 69.0947 -0.636374 61.349 0.741691Z" fill="#4C4CFF"/>
</svg>
